<svg width="30" height="30" viewBox="0 0 30 30" fill="none" xmlns="http://www.w3.org/2000/svg">
<path d="M0 1.07143C0 0.787268 0.105358 0.514746 0.292896 0.313814C0.480434 0.112883 0.73479 0 1.00001 0H4.00004C4.2231 6.60246e-05 4.43974 0.0800372 4.6155 0.227196C4.79127 0.374355 4.91606 0.580251 4.97005 0.812143L5.78005 4.28571H29.0003C29.1522 4.28576 29.3021 4.32288 29.4386 4.39426C29.5751 4.46563 29.6946 4.56939 29.7881 4.69766C29.8816 4.82592 29.9466 4.97532 29.9782 5.13452C30.0097 5.29371 30.007 5.45852 29.9703 5.61643L26.9702 18.4736C26.9163 18.7055 26.7915 18.9114 26.6157 19.0585C26.4399 19.2057 26.2233 19.2856 26.0002 19.2857H8.00007C7.77701 19.2856 7.56037 19.2057 7.38461 19.0585C7.20884 18.9114 7.08405 18.7055 7.03006 18.4736L3.22003 2.14286H1.00001C0.73479 2.14286 0.480434 2.02997 0.292896 1.82904C0.105358 1.62811 0 1.35559 0 1.07143ZM6.28006 6.42857L8.78008 17.1429H25.2202L27.7203 6.42857H6.28006ZM10.0001 23.5714C9.46965 23.5714 8.96094 23.7972 8.58587 24.1991C8.21079 24.6009 8.00007 25.146 8.00007 25.7143C8.00007 26.2826 8.21079 26.8277 8.58587 27.2295C8.96094 27.6314 9.46965 27.8571 10.0001 27.8571C10.5305 27.8571 11.0392 27.6314 11.4143 27.2295C11.7894 26.8277 12.0001 26.2826 12.0001 25.7143C12.0001 25.146 11.7894 24.6009 11.4143 24.1991C11.0392 23.7972 10.5305 23.5714 10.0001 23.5714ZM6.00006 25.7143C6.00006 24.5776 6.42149 23.4876 7.17164 22.6838C7.92179 21.8801 8.93922 21.4286 10.0001 21.4286C11.061 21.4286 12.0784 21.8801 12.8285 22.6838C13.5787 23.4876 14.0001 24.5776 14.0001 25.7143C14.0001 26.8509 13.5787 27.941 12.8285 28.7447C12.0784 29.5485 11.061 30 10.0001 30C8.93922 30 7.92179 29.5485 7.17164 28.7447C6.42149 27.941 6.00006 26.8509 6.00006 25.7143ZM24.0002 23.5714C23.4698 23.5714 22.9611 23.7972 22.586 24.1991C22.2109 24.6009 22.0002 25.146 22.0002 25.7143C22.0002 26.2826 22.2109 26.8277 22.586 27.2295C22.9611 27.6314 23.4698 27.8571 24.0002 27.8571C24.5307 27.8571 25.0394 27.6314 25.4144 27.2295C25.7895 26.8277 26.0002 26.2826 26.0002 25.7143C26.0002 25.146 25.7895 24.6009 25.4144 24.1991C25.0394 23.7972 24.5307 23.5714 24.0002 23.5714ZM20.0002 25.7143C20.0002 24.5776 20.4216 23.4876 21.1718 22.6838C21.9219 21.8801 22.9393 21.4286 24.0002 21.4286C25.0611 21.4286 26.0785 21.8801 26.8287 22.6838C27.5788 23.4876 28.0003 24.5776 28.0003 25.7143C28.0003 26.8509 27.5788 27.941 26.8287 28.7447C26.0785 29.5485 25.0611 30 24.0002 30C22.9393 30 21.9219 29.5485 21.1718 28.7447C20.4216 27.941 20.0002 26.8509 20.0002 25.7143Z" fill="white"/>
</svg>

